<svg width="16" height="16" viewBox="0 0 16 16" fill="none" xmlns="http://www.w3.org/2000/svg">
<path d="M8.2998 15.6001C4.1998 15.6001 0.799805 12.2001 0.799805 8.1001C0.799805 4.0001 4.1998 0.600098 8.2998 0.600098C12.3998 0.600098 15.7998 4.0001 15.7998 8.1001C15.7998 12.3001 12.4998 15.6001 8.2998 15.6001ZM8.2998 1.2001C4.4998 1.2001 1.39981 4.3001 1.39981 8.1001C1.39981 11.9001 4.4998 15.0001 8.2998 15.0001C12.0998 15.0001 15.1998 11.9001 15.1998 8.1001C15.2998 4.3001 12.0998 1.2001 8.2998 1.2001Z" fill="#93B5C5"/>
<path d="M11.1998 11.7001C10.9998 11.7001 10.7998 11.6001 10.6998 11.5001L4.8998 5.7001C4.5998 5.4001 4.5998 5.0001 4.8998 4.7001C5.1998 4.4001 5.5998 4.4001 5.8998 4.7001L11.6998 10.5001C11.9998 10.8001 11.9998 11.2001 11.6998 11.5001C11.5998 11.7001 11.3998 11.7001 11.1998 11.7001Z" fill="#93B5C5"/>
<path d="M5.3998 11.7001C5.1998 11.7001 4.9998 11.6001 4.8998 11.5001C4.5998 11.2001 4.5998 10.8001 4.8998 10.5001L10.6998 4.7001C10.9998 4.4001 11.3998 4.4001 11.6998 4.7001C11.9998 5.0001 11.9998 5.4001 11.6998 5.7001L5.8998 11.5001C5.7998 11.7001 5.5998 11.7001 5.3998 11.7001Z" fill="#93B5C5"/>
</svg>
