<svg width="20" height="25" viewBox="0 0 20 25" fill="none" xmlns="http://www.w3.org/2000/svg">
<path d="M2.55017 1.69995H17.2502C18.1502 1.69995 18.8502 2.39993 18.8502 3.29993V21.9999C18.8502 22.8999 18.1502 23.5999 17.2502 23.5999H2.55017C1.65017 23.5999 0.950195 22.8999 0.950195 21.9999V3.29993C0.950195 2.39993 1.65017 1.69995 2.55017 1.69995Z" fill="white"/>
<path d="M2.55024 1.69995C1.65024 1.69995 0.950265 2.39993 0.950265 3.29993V21.9999C0.950265 22.8999 1.65024 23.5999 2.55024 23.5999H17.2503C18.1503 23.5999 18.8503 22.8999 18.8503 21.9999V3.29993C18.8503 2.39993 18.1503 1.69995 17.2503 1.69995H2.55024ZM2.55024 1.19995H17.2503C18.4503 1.19995 19.3503 2.19993 19.3503 3.29993V21.9999C19.3503 23.1999 18.3503 24.0999 17.2503 24.0999H2.55024C1.35024 24.0999 0.450265 23.0999 0.450265 21.9999V3.29993C0.350265 2.09993 1.35024 1.19995 2.55024 1.19995Z" stroke="#337390" stroke-width="0.5" stroke-miterlimit="10"/>
<path d="M14.7502 13.6L16.7502 14.6V21.5H3.15018C3.05018 21.5 3.05017 21.4 3.05017 21.4V16.5L4.65018 15.4C5.55018 15.9 7.85018 17.1 8.15018 17.3C8.35018 17.5 8.6502 17.5 8.9502 17.5C9.2502 17.5 9.65019 17.4 9.85019 17.2C10.0502 17 13.7502 14.3 14.7502 13.6ZM14.6502 12.5C14.5502 12.5 14.4502 12.5 14.3502 12.6C14.3502 12.6 9.55018 16.2 9.25018 16.3C9.15018 16.4 9.0502 16.4 8.9502 16.4C8.8502 16.4 8.75018 16.4 8.65018 16.3C8.55018 16.2 5.65019 14.7 4.85019 14.3C4.75019 14.3 4.65017 14.2 4.55017 14.2C4.45017 14.2 4.35018 14.2 4.25018 14.3L2.15018 15.8C2.05018 15.9 1.9502 16.1 1.9502 16.2V21.4C1.9502 22 2.45017 22.5 3.05017 22.5H17.0502C17.3502 22.5 17.5502 22.3 17.5502 22V14.3C17.5502 14.1 17.4502 13.9 17.2502 13.8L14.8502 12.5C14.8502 12.5 14.7502 12.5 14.6502 12.5Z" fill="#337390"/>
<path d="M6.85019 9.19992C7.89953 9.19992 8.75018 8.34924 8.75018 7.2999C8.75018 6.25056 7.89953 5.3999 6.85019 5.3999C5.80085 5.3999 4.9502 6.25056 4.9502 7.2999C4.9502 8.34924 5.80085 9.19992 6.85019 9.19992Z" stroke="#337390" stroke-miterlimit="10"/>
</svg>
