<svg width="21" height="26" viewBox="0 0 21 26" fill="none" xmlns="http://www.w3.org/2000/svg">
<path d="M2.53535 1.48364H18.5877C19.5801 1.48364 20.3389 2.24248 20.3389 3.23481V23.6651C20.3389 24.6575 19.5801 25.4163 18.5877 25.4163H2.53535C1.54302 25.4163 0.78418 24.6575 0.78418 23.6651V3.23481C0.78418 2.24248 1.54302 1.48364 2.53535 1.48364Z" fill="white"/>
<path d="M2.53509 1.48363C1.54276 1.48363 0.783918 2.24247 0.783918 3.2348V23.6651C0.783918 24.6574 1.54276 25.4163 2.53509 25.4163H18.5875C19.5798 25.4163 20.3386 24.6574 20.3386 23.6651V3.2348C20.3386 2.24247 19.5798 1.48363 18.5875 1.48363H2.53509ZM2.53509 0.899902H18.5875C19.8717 0.899902 20.9224 1.9506 20.9224 3.2348V23.6651C20.9224 24.9493 19.8717 26 18.5875 26H2.53509C1.2509 26 0.200195 24.9493 0.200195 23.6651V3.2348C0.200195 1.9506 1.2509 0.899902 2.53509 0.899902Z" fill="#337390"/>
<path d="M16.2531 22.0891H4.75378C4.57866 22.0891 4.46191 21.9723 4.46191 21.7972C4.46191 21.6221 4.57866 21.5054 4.75378 21.5054H16.2531C16.4282 21.5054 16.545 21.6221 16.545 21.7972C16.545 21.9723 16.3699 22.0891 16.2531 22.0891Z" fill="#337390"/>
<path d="M16.2531 19.5791H4.75378C4.57866 19.5791 4.46191 19.4623 4.46191 19.2872C4.46191 19.1121 4.57866 18.9954 4.75378 18.9954H16.2531C16.4282 18.9954 16.545 19.1121 16.545 19.2872C16.545 19.4623 16.3699 19.5791 16.2531 19.5791Z" fill="#337390"/>
<path d="M16.2531 17.1274H4.75378C4.57866 17.1274 4.46191 17.0107 4.46191 16.8356C4.46191 16.6604 4.57866 16.5437 4.75378 16.5437H16.2531C16.4282 16.5437 16.545 16.6604 16.545 16.8356C16.545 17.0107 16.3699 17.1274 16.2531 17.1274Z" fill="#337390"/>
<path d="M5.415 10.6924V7.19238H6.93C7.24333 7.19238 7.51333 7.24405 7.74 7.34738C7.96667 7.44738 8.14167 7.59238 8.265 7.78238C8.38833 7.97238 8.45 8.19905 8.45 8.46238C8.45 8.72238 8.38833 8.94738 8.265 9.13738C8.14167 9.32738 7.96667 9.47405 7.74 9.57738C7.51333 9.67738 7.24333 9.72738 6.93 9.72738H5.865L6.225 9.36238V10.6924H5.415ZM6.225 9.45238L5.865 9.06738H6.885C7.135 9.06738 7.32167 9.01405 7.445 8.90738C7.56833 8.80072 7.63 8.65238 7.63 8.46238C7.63 8.26905 7.56833 8.11905 7.445 8.01238C7.32167 7.90572 7.135 7.85238 6.885 7.85238H5.865L6.225 7.46738V9.45238ZM9.02828 10.6924V7.19238H10.6183C10.9983 7.19238 11.3333 7.26572 11.6233 7.41238C11.9133 7.55572 12.1399 7.75738 12.3033 8.01738C12.4666 8.27738 12.5483 8.58572 12.5483 8.94238C12.5483 9.29572 12.4666 9.60405 12.3033 9.86738C12.1399 10.1274 11.9133 10.3307 11.6233 10.4774C11.3333 10.6207 10.9983 10.6924 10.6183 10.6924H9.02828ZM9.83828 10.0274H10.5783C10.8116 10.0274 11.0133 9.98405 11.1833 9.89738C11.3566 9.80738 11.4899 9.68072 11.5833 9.51738C11.6799 9.35405 11.7283 9.16238 11.7283 8.94238C11.7283 8.71905 11.6799 8.52738 11.5833 8.36738C11.4899 8.20405 11.3566 8.07905 11.1833 7.99238C11.0133 7.90238 10.8116 7.85738 10.5783 7.85738H9.83828V10.0274ZM13.9091 8.76738H15.5891V9.41738H13.9091V8.76738ZM13.9691 10.6924H13.1591V7.19238H15.8041V7.84238H13.9691V10.6924Z" fill="#337390"/>
</svg>
